<svg xmlns="http://www.w3.org/2000/svg" width="700" height="300" viewBox="0 0 700 300">
  <rect width="100%" height="100%" fill="#0A0A0A"/>
  <defs>
    <marker id="arrow" viewBox="0 0 10 10" refX="8" refY="5" markerWidth="6" markerHeight="6" orient="auto-start-reverse">
      <path d="M 0 1 L 10 5 L 0 9 z" fill="#FFFFFF"/>
    </marker>
  </defs>
  <path d="M 200 80 L 250 80" stroke="#FFFFFF" stroke-width="1.5" fill="none" marker-end="url(#arrow)"/>
  <text x="225.0" y="72.0" fill="#E8E6E1" font-family="sans-serif" font-size="11" text-anchor="middle">Redirect</text>
  <path d="M 400 80 L 450 80" stroke="#FFFFFF" stroke-width="1.5" fill="none" marker-end="url(#arrow)"/>
  <text x="425.0" y="72.0" fill="#E8E6E1" font-family="sans-serif" font-size="11" text-anchor="middle">Success</text>
  <path d="M 525 110 L 525 170" stroke="#FFFFFF" stroke-width="1.5" fill="none" marker-end="url(#arrow)"/>
  <text x="525.0" y="132.0" fill="#E8E6E1" font-family="sans-serif" font-size="11" text-anchor="middle">Record</text>
  <path d="M 450 200 L 400 200" stroke="#FFFFFF" stroke-width="1.5" fill="none" marker-end="url(#arrow)"/>
  <text x="425.0" y="192.0" fill="#E8E6E1" font-family="sans-serif" font-size="11" text-anchor="middle">Background task</text>
  <path d="M 250 200 L 200 200" stroke="#FFFFFF" stroke-width="1.5" fill="none" marker-end="url(#arrow)"/>
  <text x="225.0" y="192.0" fill="#E8E6E1" font-family="sans-serif" font-size="11" text-anchor="middle">Update UI</text>
  <rect x="50" y="50" width="150" height="60" rx="8" ry="8" fill="#121212" stroke="#FFFFFF" stroke-width="1.5"/>
  <text x="125.0" y="84.0" fill="#E8E6E1" font-family="sans-serif" font-size="12" font-weight="bold" text-anchor="middle">Unauthenticated User</text>
  <rect x="250" y="50" width="150" height="60" rx="8" ry="8" fill="#121212" stroke="#FFFFFF" stroke-width="1.5"/>
  <text x="325.0" y="76.0" fill="#E8E6E1" font-family="sans-serif" font-size="12" font-weight="bold" text-anchor="middle">AuthScreen</text>
  <text x="325.0" y="92.0" fill="#E8E6E1" font-family="sans-serif" font-size="12" font-weight="bold" text-anchor="middle">(JWT Cookie Set)</text>
  <rect x="450" y="50" width="150" height="60" rx="8" ry="8" fill="#121212" stroke="#C8F135" stroke-width="1.5"/>
  <text x="525.0" y="76.0" fill="#E8E6E1" font-family="sans-serif" font-size="12" font-weight="bold" text-anchor="middle">Dashboard Main</text>
  <text x="525.0" y="92.0" fill="#E8E6E1" font-family="sans-serif" font-size="12" font-weight="bold" text-anchor="middle">(Workspace Sheet)</text>
  <rect x="450" y="170" width="150" height="60" rx="8" ry="8" fill="#121212" stroke="#FFFFFF" stroke-width="1.5"/>
  <text x="525.0" y="196.0" fill="#E8E6E1" font-family="sans-serif" font-size="12" font-weight="bold" text-anchor="middle">Capture Flow</text>
  <text x="525.0" y="212.0" fill="#E8E6E1" font-family="sans-serif" font-size="12" font-weight="bold" text-anchor="middle">(Mic / Upload Trigger)</text>
  <rect x="250" y="170" width="150" height="60" rx="8" ry="8" fill="#121212" stroke="#FFFFFF" stroke-width="1.5"/>
  <text x="325.0" y="196.0" fill="#E8E6E1" font-family="sans-serif" font-size="12" font-weight="bold" text-anchor="middle">AI Processing Timeline</text>
  <text x="325.0" y="212.0" fill="#E8E6E1" font-family="sans-serif" font-size="12" font-weight="bold" text-anchor="middle">(done / failed states)</text>
  <rect x="50" y="170" width="150" height="60" rx="8" ry="8" fill="#121212" stroke="#FFFFFF" stroke-width="1.5"/>
  <text x="125.0" y="196.0" fill="#E8E6E1" font-family="sans-serif" font-size="12" font-weight="bold" text-anchor="middle">Workspace Consumption</text>
  <text x="125.0" y="212.0" fill="#E8E6E1" font-family="sans-serif" font-size="12" font-weight="bold" text-anchor="middle">(Overview / Chat / PDF)</text>
</svg>