<svg xmlns="http://www.w3.org/2000/svg" width="750" height="450" viewBox="0 0 750 450">
  <rect width="100%" height="100%" fill="#0A0A0A"/>
  <defs>
    <marker id="arrow" viewBox="0 0 10 10" refX="8" refY="5" markerWidth="6" markerHeight="6" orient="auto-start-reverse">
      <path d="M 0 1 L 10 5 L 0 9 z" fill="#FFFFFF"/>
    </marker>
  </defs>
  <path d="M 190 190 L 260 115" stroke="#FFFFFF" stroke-width="1.5" fill="none" marker-end="url(#arrow)"/>
  <text x="225.0" y="144.5" fill="#E8E6E1" font-family="sans-serif" font-size="11" text-anchor="middle">JSON / Cookie</text>
  <path d="M 260 255 L 190 190" stroke="#FFFFFF" stroke-width="1.5" fill="none" marker-end="url(#arrow)"/>
  <text x="225.0" y="214.5" fill="#E8E6E1" font-family="sans-serif" font-size="11" text-anchor="middle">Poll / GET</text>
  <path d="M 350 150 L 350 220" stroke="#FFFFFF" stroke-width="1.5" fill="none" marker-end="url(#arrow)"/>
  <text x="350.0" y="177.0" fill="#E8E6E1" font-family="sans-serif" font-size="11" text-anchor="middle">Delegate</text>
  <path d="M 440 115 L 520 115" stroke="#FFFFFF" stroke-width="1.5" fill="none" marker-end="url(#arrow)"/>
  <text x="480.0" y="107.0" fill="#E8E6E1" font-family="sans-serif" font-size="11" text-anchor="middle">Query</text>
  <path d="M 440 255 L 520 245" stroke="#FFFFFF" stroke-width="1.5" fill="none" marker-end="url(#arrow)"/>
  <text x="480.0" y="242.0" fill="#E8E6E1" font-family="sans-serif" font-size="11" text-anchor="middle">Spawn</text>
  <path d="M 440 270 L 520 345" stroke="#FFFFFF" stroke-width="1.5" fill="none" marker-end="url(#arrow)"/>
  <text x="480.0" y="299.5" fill="#E8E6E1" font-family="sans-serif" font-size="11" text-anchor="middle">Request</text>
  <path d="M 350 290 L 350 350" stroke="#FFFFFF" stroke-width="1.5" fill="none" marker-end="url(#arrow)"/>
  <text x="350.0" y="312.0" fill="#E8E6E1" font-family="sans-serif" font-size="11" text-anchor="middle">Scalability</text>
  <rect x="50" y="150" width="140" height="80" rx="8" ry="8" fill="#121212" stroke="#C8F135" stroke-width="1.5"/>
  <text x="120.0" y="186.0" fill="#E8E6E1" font-family="sans-serif" font-size="12" font-weight="bold" text-anchor="middle">Client Interface</text>
  <text x="120.0" y="202.0" fill="#E8E6E1" font-family="sans-serif" font-size="12" font-weight="bold" text-anchor="middle">(Next.js App)</text>
  <rect x="260" y="80" width="180" height="70" rx="8" ry="8" fill="#121212" stroke="#FFFFFF" stroke-width="1.5"/>
  <text x="350.0" y="111.0" fill="#E8E6E1" font-family="sans-serif" font-size="12" font-weight="bold" text-anchor="middle">FastAPI Web Server</text>
  <text x="350.0" y="127.0" fill="#E8E6E1" font-family="sans-serif" font-size="12" font-weight="bold" text-anchor="middle">(API & Auth Rails)</text>
  <rect x="260" y="220" width="180" height="70" rx="8" ry="8" fill="#121212" stroke="#FFFFFF" stroke-width="1.5"/>
  <text x="350.0" y="251.0" fill="#E8E6E1" font-family="sans-serif" font-size="12" font-weight="bold" text-anchor="middle">Background Tasks</text>
  <text x="350.0" y="267.0" fill="#E8E6E1" font-family="sans-serif" font-size="12" font-weight="bold" text-anchor="middle">(Pipeline Coordinator)</text>
  <path d="M 520 95 L 520 145 A 70.0 15 0 0 0 660 145 L 660 95 A 70.0 15 0 0 0 520 95 A 70.0 15 0 0 0 660 95 Z" fill="#121212" stroke="#FFFFFF" stroke-width="1.5"/>
  <text x="590.0" y="116.0" fill="#E8E6E1" font-family="sans-serif" font-size="12" font-weight="bold" text-anchor="middle">Database Engine</text>
  <text x="590.0" y="132.0" fill="#E8E6E1" font-family="sans-serif" font-size="12" font-weight="bold" text-anchor="middle">(SQLite/PostgreSQL)</text>
  <rect x="520" y="210" width="140" height="70" rx="8" ry="8" fill="#121212" stroke="#FFFFFF" stroke-width="1.5"/>
  <text x="590.0" y="241.0" fill="#E8E6E1" font-family="sans-serif" font-size="12" font-weight="bold" text-anchor="middle">local whisper CLI</text>
  <text x="590.0" y="257.0" fill="#E8E6E1" font-family="sans-serif" font-size="12" font-weight="bold" text-anchor="middle">(Transcription)</text>
  <rect x="520" y="310" width="140" height="70" rx="8" ry="8" fill="#121212" stroke="#FFFFFF" stroke-width="1.5"/>
  <text x="590.0" y="341.0" fill="#E8E6E1" font-family="sans-serif" font-size="12" font-weight="bold" text-anchor="middle">Google Gemini API</text>
  <text x="590.0" y="357.0" fill="#E8E6E1" font-family="sans-serif" font-size="12" font-weight="bold" text-anchor="middle">(Summarization)</text>
  <rect x="260" y="350" width="180" height="70" rx="8" ry="8" fill="#1A1A1A" stroke="#FFFFFF" stroke-width="1.5"/>
  <text x="350.0" y="381.0" fill="#E8E6E1" font-family="sans-serif" font-size="12" font-weight="bold" text-anchor="middle">Future worker cluster</text>
  <text x="350.0" y="397.0" fill="#E8E6E1" font-family="sans-serif" font-size="12" font-weight="bold" text-anchor="middle">(Celery / Redis)</text>
</svg>