<svg xmlns="http://www.w3.org/2000/svg" width="700" height="330" viewBox="0 0 700 330">
  <rect width="100%" height="100%" fill="#0A0A0A"/>
  <defs>
    <marker id="arrow" viewBox="0 0 10 10" refX="8" refY="5" markerWidth="6" markerHeight="6" orient="auto-start-reverse">
      <path d="M 0 1 L 10 5 L 0 9 z" fill="#FFFFFF"/>
    </marker>
  </defs>
  <path d="M 210 95 L 270 95" stroke="#FFFFFF" stroke-width="1.5" fill="none" marker-end="url(#arrow)"/>
  <text x="240.0" y="87.0" fill="#E8E6E1" font-family="sans-serif" font-size="11" text-anchor="middle">1 to *</text>
  <path d="M 210 110 L 490 110" stroke="#FFFFFF" stroke-width="1.5" fill="none" marker-end="url(#arrow)"/>
  <text x="350.0" y="102.0" fill="#E8E6E1" font-family="sans-serif" font-size="11" text-anchor="middle">1 to *</text>
  <path d="M 350 140 L 350 190" stroke="#FFFFFF" stroke-width="1.5" fill="none" marker-end="url(#arrow)"/>
  <text x="350.0" y="157.0" fill="#E8E6E1" font-family="sans-serif" font-size="11" text-anchor="middle">1 to *</text>
  <path d="M 210 235 L 270 235" stroke="#FFFFFF" stroke-width="1.5" fill="none" marker-end="url(#arrow)"/>
  <text x="240.0" y="227.0" fill="#E8E6E1" font-family="sans-serif" font-size="11" text-anchor="middle">1 to *</text>
  <path d="M 50 65 L 50 125 A 80.0 15 0 0 0 210 125 L 210 65 A 80.0 15 0 0 0 50 65 A 80.0 15 0 0 0 210 65 Z" fill="#121212" stroke="#FFFFFF" stroke-width="1.5"/>
  <text x="130.0" y="75.0" fill="#E8E6E1" font-family="sans-serif" font-size="12" font-weight="bold" text-anchor="middle">users</text>
  <text x="130.0" y="91.0" fill="#E8E6E1" font-family="sans-serif" font-size="12" font-weight="bold" text-anchor="middle">- id (PK)</text>
  <text x="130.0" y="107.0" fill="#E8E6E1" font-family="sans-serif" font-size="12" font-weight="bold" text-anchor="middle">- email (UQ)</text>
  <text x="130.0" y="123.0" fill="#E8E6E1" font-family="sans-serif" font-size="12" font-weight="bold" text-anchor="middle">- hashed_password</text>
  <path d="M 270 65 L 270 125 A 80.0 15 0 0 0 430 125 L 430 65 A 80.0 15 0 0 0 270 65 A 80.0 15 0 0 0 430 65 Z" fill="#121212" stroke="#FFFFFF" stroke-width="1.5"/>
  <text x="350.0" y="75.0" fill="#E8E6E1" font-family="sans-serif" font-size="12" font-weight="bold" text-anchor="middle">meetings</text>
  <text x="350.0" y="91.0" fill="#E8E6E1" font-family="sans-serif" font-size="12" font-weight="bold" text-anchor="middle">- id (PK)</text>
  <text x="350.0" y="107.0" fill="#E8E6E1" font-family="sans-serif" font-size="12" font-weight="bold" text-anchor="middle">- owner_id (FK)</text>
  <text x="350.0" y="123.0" fill="#E8E6E1" font-family="sans-serif" font-size="12" font-weight="bold" text-anchor="middle">- status, summary</text>
  <path d="M 490 65 L 490 125 A 80.0 15 0 0 0 650 125 L 650 65 A 80.0 15 0 0 0 490 65 A 80.0 15 0 0 0 650 65 Z" fill="#121212" stroke="#FFFFFF" stroke-width="1.5"/>
  <text x="570.0" y="75.0" fill="#E8E6E1" font-family="sans-serif" font-size="12" font-weight="bold" text-anchor="middle">refresh_tokens</text>
  <text x="570.0" y="91.0" fill="#E8E6E1" font-family="sans-serif" font-size="12" font-weight="bold" text-anchor="middle">- id (PK)</text>
  <text x="570.0" y="107.0" fill="#E8E6E1" font-family="sans-serif" font-size="12" font-weight="bold" text-anchor="middle">- user_id (FK)</text>
  <text x="570.0" y="123.0" fill="#E8E6E1" font-family="sans-serif" font-size="12" font-weight="bold" text-anchor="middle">- token_hash</text>
  <path d="M 270 205 L 270 265 A 80.0 15 0 0 0 430 265 L 430 205 A 80.0 15 0 0 0 270 205 A 80.0 15 0 0 0 430 205 Z" fill="#121212" stroke="#FFFFFF" stroke-width="1.5"/>
  <text x="350.0" y="223.0" fill="#E8E6E1" font-family="sans-serif" font-size="12" font-weight="bold" text-anchor="middle">meeting_entities</text>
  <text x="350.0" y="239.0" fill="#E8E6E1" font-family="sans-serif" font-size="12" font-weight="bold" text-anchor="middle">- meeting_id (PK, FK)</text>
  <text x="350.0" y="255.0" fill="#E8E6E1" font-family="sans-serif" font-size="12" font-weight="bold" text-anchor="middle">- entity_id (PK, FK)</text>
  <path d="M 50 205 L 50 265 A 80.0 15 0 0 0 210 265 L 210 205 A 80.0 15 0 0 0 50 205 A 80.0 15 0 0 0 210 205 Z" fill="#121212" stroke="#FFFFFF" stroke-width="1.5"/>
  <text x="130.0" y="215.0" fill="#E8E6E1" font-family="sans-serif" font-size="12" font-weight="bold" text-anchor="middle">entities</text>
  <text x="130.0" y="231.0" fill="#E8E6E1" font-family="sans-serif" font-size="12" font-weight="bold" text-anchor="middle">- id (PK)</text>
  <text x="130.0" y="247.0" fill="#E8E6E1" font-family="sans-serif" font-size="12" font-weight="bold" text-anchor="middle">- owner_id (FK)</text>
  <text x="130.0" y="263.0" fill="#E8E6E1" font-family="sans-serif" font-size="12" font-weight="bold" text-anchor="middle">- name, category</text>
</svg>