<svg xmlns="http://www.w3.org/2000/svg" width="620" height="290" viewBox="0 0 620 290">
  <rect width="100%" height="100%" fill="#0A0A0A"/>
  <defs>
    <marker id="arrow" viewBox="0 0 10 10" refX="8" refY="5" markerWidth="6" markerHeight="6" orient="auto-start-reverse">
      <path d="M 0 1 L 10 5 L 0 9 z" fill="#FFFFFF"/>
    </marker>
  </defs>
  <path d="M 190 82 L 240 82" stroke="#FFFFFF" stroke-width="1.5" fill="none" marker-end="url(#arrow)"/>
  <text x="215.0" y="74.0" fill="#E8E6E1" font-family="sans-serif" font-size="11" text-anchor="middle">Next</text>
  <path d="M 380 82 L 430 82" stroke="#FFFFFF" stroke-width="1.5" fill="none" marker-end="url(#arrow)"/>
  <text x="405.0" y="74.0" fill="#E8E6E1" font-family="sans-serif" font-size="11" text-anchor="middle">Next</text>
  <path d="M 500 115 L 500 170" stroke="#FFFFFF" stroke-width="1.5" fill="none" marker-end="url(#arrow)"/>
  <text x="500.0" y="134.5" fill="#E8E6E1" font-family="sans-serif" font-size="11" text-anchor="middle">Next</text>
  <path d="M 430 202 L 380 202" stroke="#FFFFFF" stroke-width="1.5" fill="none" marker-end="url(#arrow)"/>
  <text x="405.0" y="194.0" fill="#E8E6E1" font-family="sans-serif" font-size="11" text-anchor="middle">Next</text>
  <rect x="50" y="50" width="140" height="65" rx="8" ry="8" fill="#121212" stroke="#FFFFFF" stroke-width="1.5"/>
  <text x="120.0" y="78.5" fill="#E8E6E1" font-family="sans-serif" font-size="12" font-weight="bold" text-anchor="middle">Phase 1: Foundations</text>
  <text x="120.0" y="94.5" fill="#E8E6E1" font-family="sans-serif" font-size="12" font-weight="bold" text-anchor="middle">Whisper & APIs</text>
  <rect x="240" y="50" width="140" height="65" rx="8" ry="8" fill="#121212" stroke="#FFFFFF" stroke-width="1.5"/>
  <text x="310.0" y="78.5" fill="#E8E6E1" font-family="sans-serif" font-size="12" font-weight="bold" text-anchor="middle">Phase 2: Scalability</text>
  <text x="310.0" y="94.5" fill="#E8E6E1" font-family="sans-serif" font-size="12" font-weight="bold" text-anchor="middle">Background jobs</text>
  <rect x="430" y="50" width="140" height="65" rx="8" ry="8" fill="#121212" stroke="#FFFFFF" stroke-width="1.5"/>
  <text x="500.0" y="78.5" fill="#E8E6E1" font-family="sans-serif" font-size="12" font-weight="bold" text-anchor="middle">Phase 3: Auth & Sec</text>
  <text x="500.0" y="94.5" fill="#E8E6E1" font-family="sans-serif" font-size="12" font-weight="bold" text-anchor="middle">JWT Cookie Isolation</text>
  <rect x="430" y="170" width="140" height="65" rx="8" ry="8" fill="#121212" stroke="#FFFFFF" stroke-width="1.5"/>
  <text x="500.0" y="198.5" fill="#E8E6E1" font-family="sans-serif" font-size="12" font-weight="bold" text-anchor="middle">Phase 4: Design Refine</text>
  <text x="500.0" y="214.5" fill="#E8E6E1" font-family="sans-serif" font-size="12" font-weight="bold" text-anchor="middle">Graphite Dark UI</text>
  <rect x="240" y="170" width="140" height="65" rx="8" ry="8" fill="#121212" stroke="#FFFFFF" stroke-width="1.5"/>
  <text x="310.0" y="198.5" fill="#E8E6E1" font-family="sans-serif" font-size="12" font-weight="bold" text-anchor="middle">Production release</text>
  <text x="310.0" y="214.5" fill="#E8E6E1" font-family="sans-serif" font-size="12" font-weight="bold" text-anchor="middle">Render / Railway</text>
</svg>